<svg xmlns="http://www.w3.org/2000/svg" viewBox="0 0 700 90" role="img" aria-label="Green grass decoration">
  <path d="M4 76 L14 74 L20 82 L26 61 L33 84 L40 59 L48 82 L56 58 L63 79 L71 60 L78 83 L85 56 L93 84 L100 58 L108 79 L116 59 L124 83 L132 63 L138 77 L145 60 L153 84 L161 52 L168 79 L176 46 L184 82 L192 52 L198 76 L206 49 L214 82 L222 65 L230 78 L238 60 L246 82 L254 51 L260 73 L268 43 L276 84 L285 42 L294 79 L302 35 L311 80 L320 36 L328 75 L336 40 L344 82 L351 54 L359 83 L367 57 L374 76 L383 52 L390 82 L398 44 L406 79 L413 57 L422 82 L430 52 L438 77 L447 58 L454 84 L463 62 L472 77 L480 56 L488 82 L496 60 L504 79 L511 61 L518 83 L527 58 L535 84 L543 62 L551 79 L560 60 L567 82 L575 68 L584 77 L594 64 L603 80 L611 66 L620 84 L629 68 L638 82 L648 70 L657 82 L666 73 L676 81 L689 80" fill="none" stroke="#0BA94D" stroke-width="8" stroke-linecap="round" stroke-linejoin="round"/>
</svg>
