<svg xmlns="http://www.w3.org/2000/svg" viewBox="0 0 512 512" role="img" aria-label="Sideline Manager icon">
  <defs>
    <linearGradient id="r" x1="0" y1="0" x2="1" y2="1">
      <stop offset="0%" stop-color="#F1575B"/>
      <stop offset="100%" stop-color="#E0464B"/>
    </linearGradient>
    <filter id="shadow" x="-20%" y="-20%" width="140%" height="140%">
      <feDropShadow dx="0" dy="10" stdDeviation="12" flood-color="#8f1d23" flood-opacity="0.22"/>
    </filter>
  </defs>
  <rect x="26" y="26" width="460" height="460" rx="104" fill="url(#r)"/>
  <g filter="url(#shadow)">
    <rect x="152" y="107" width="208" height="288" rx="28" fill="#ffffff"/>
    <rect x="206" y="78" width="100" height="62" rx="20" fill="#0B2347"/>
    <circle cx="256" cy="110" r="13" fill="#ffffff"/>
    <path d="M201 174h111M201 220h111M201 266h90" stroke="#7C8798" stroke-width="16" stroke-linecap="round"/>
    <path d="M172 204c-16 15-29 34-36 57-8 27-7 55 2 81" fill="none" stroke="#0B2347" stroke-width="22" stroke-linecap="round"/>
    <path d="M109 323l45 2-8-44" fill="#0B2347"/>
    <path d="M341 188c19 16 33 37 41 62 9 26 9 53 2 78" fill="none" stroke="#E0464B" stroke-width="22" stroke-linecap="round"/>
    <path d="M408 315l-44 10 1-45" fill="#E0464B"/>
    <g transform="translate(165 290) rotate(-18 91 54)">
      <ellipse cx="91" cy="54" rx="77" ry="50" fill="#ffffff" stroke="#0B2347" stroke-width="11"/>
      <path d="M43 54c14-13 31-19 48-19s34 6 48 19c-14 13-31 19-48 19s-34-6-48-19Z" fill="#F7F9FC" stroke="#0B2347" stroke-width="7"/>
      <path d="M71 30l9 20m31-20-9 20m-16 1v36m19-36v36" stroke="#0B2347" stroke-width="6" stroke-linecap="round"/>
      <path d="M22 54c15 16 35 30 57 37" fill="none" stroke="#E0464B" stroke-width="8" stroke-linecap="round"/>
    </g>
  </g>
</svg>
