<svg xmlns="http://www.w3.org/2000/svg" viewBox="0 0 512 512" role="img" aria-label="Sideline Manager logo">
  <defs>
    <clipPath id="shield"><path d="M256 38c79 0 151 20 184 32v152c0 133-77 218-184 252-107-34-184-119-184-252V70c33-12 105-32 184-32Z"/></clipPath>
  </defs>
  <rect width="512" height="512" rx="96" fill="#fff5f5"/>
  <g clip-path="url(#shield)">
    <rect width="512" height="512" fill="#ffffff"/>
    <rect y="0" width="512" height="55" fill="#b30f16"/>
    <rect y="110" width="512" height="55" fill="#b30f16"/>
    <rect y="220" width="512" height="55" fill="#b30f16"/>
    <rect y="330" width="512" height="55" fill="#b30f16"/>
    <rect y="440" width="512" height="55" fill="#b30f16"/>
  </g>
  <path d="M146 214c16-42 55-76 103-90" fill="none" stroke="#8f0f14" stroke-width="28" stroke-linecap="round"/>
  <path d="M112 213l59-22-17 60" fill="#8f0f14"/>
  <path d="M366 300c-16 42-55 76-103 90" fill="none" stroke="#8f0f14" stroke-width="28" stroke-linecap="round"/>
  <path d="M400 301l-59 22 17-60" fill="#8f0f14"/>
  <ellipse cx="256" cy="256" rx="82" ry="58" fill="#ffffff" stroke="#1b365d" stroke-width="16"/>
  <path d="M205 256c16-15 33-22 51-22s35 7 51 22c-16 15-33 22-51 22s-35-7-51-22Z" fill="#d7e6ff" stroke="#1b365d" stroke-width="10"/>
  <path d="M238 212l11 31m25-31-11 31m-17 0v74m22-74v74" stroke="#8f0f14" stroke-width="10" stroke-linecap="round"/>
</svg>
